<?xml version="1.0" standalone="no"?>
<!DOCTYPE svg PUBLIC "-//W3C//DTD SVG 20010904//EN"
 "http://www.w3.org/TR/2001/REC-SVG-20010904/DTD/svg10.dtd">
<svg version="1.0" xmlns="http://www.w3.org/2000/svg"
 width="607.000000pt" height="540.000000pt" viewBox="0 0 607.000000 540.000000"
 preserveAspectRatio="xMidYMid meet">

<g transform="translate(0.000000,540.000000) scale(0.100000,-0.100000)"
fill="#a54f2a" stroke="none">
<path d="M1705 5370 c-295 -64 -472 -308 -516 -710 -23 -209 5 -535 71 -824
17 -71 29 -130 27 -131 -1 -1 -63 -21 -137 -44 -614 -194 -993 -468 -1106
-801 -23 -68 -26 -231 -5 -305 68 -244 298 -467 666 -645 145 -71 350 -150
490 -190 44 -13 84 -26 88 -30 5 -4 -1 -43 -12 -86 -78 -307 -109 -675 -76
-914 31 -230 94 -378 215 -501 121 -123 241 -173 420 -173 331 0 706 204 1177
637 l31 29 112 -102 c404 -366 780 -562 1085 -564 119 -1 184 13 285 62 139
68 248 203 311 386 85 247 84 624 -3 1036 -17 80 -32 156 -32 168 -1 22 12 28
159 77 205 67 285 100 443 179 434 218 658 483 655 777 -2 183 -82 341 -254
503 -194 182 -536 359 -916 472 -51 15 -93 31 -93 36 0 4 13 68 29 141 103
461 102 840 -2 1115 -41 109 -90 184 -172 260 -323 302 -877 145 -1515 -430
l-95 -86 -80 76 c-294 277 -624 482 -900 558 -99 27 -279 40 -350 24z m306
-261 c157 -43 385 -174 586 -335 91 -73 255 -221 261 -236 2 -4 -41 -58 -96
-120 -114 -130 -272 -327 -357 -446 -32 -45 -66 -82 -74 -82 -76 0 -418 -49
-635 -91 -87 -17 -162 -27 -166 -22 -12 12 -67 282 -85 420 -23 172 -21 432 4
552 46 217 151 349 303 381 59 12 171 3 259 -21z m2399 -11 c108 -55 178 -166
216 -342 22 -100 29 -329 14 -472 -22 -222 -82 -514 -105 -514 -7 0 -57 9
-111 20 -177 37 -607 100 -681 100 -6 0 -41 42 -79 93 -87 120 -271 348 -373
462 -93 105 -99 81 59 219 451 396 829 550 1060 434z m-1277 -845 c96 -112
267 -324 267 -332 0 -3 -162 -6 -360 -6 -208 0 -360 4 -360 9 0 21 342 426
360 426 4 0 46 -44 93 -97z m237 -583 l215 -10 25 -29 c71 -83 333 -528 463
-788 l75 -149 -92 -180 c-112 -217 -189 -352 -313 -547 -150 -236 -140 -224
-203 -234 -77 -11 -976 -9 -1025 3 -37 9 -45 19 -139 164 -126 197 -266 441
-368 642 l-79 157 71 142 c125 248 259 478 420 721 64 95 66 98 105 99 22 1
103 5 180 8 222 12 433 12 665 1z m-1240 -102 c-92 -148 -214 -356 -270 -461
-34 -65 -64 -117 -66 -115 -8 9 -105 264 -149 392 -33 97 -44 141 -36 146 24
14 539 102 550 93 2 -1 -11 -26 -29 -55z m2229 -13 c62 -13 115 -26 117 -28
11 -11 -180 -527 -195 -527 -4 0 -27 37 -51 83 -62 117 -183 326 -252 435 -32
51 -58 97 -58 101 0 10 286 -32 439 -64z m-2841 -540 c22 -55 61 -147 86 -204
25 -57 46 -108 46 -113 0 -5 -27 -71 -60 -147 -69 -159 -141 -348 -194 -508
-21 -62 -41 -113 -45 -113 -19 0 -247 76 -351 117 -346 136 -593 311 -686 486
-37 68 -39 77 -39 162 0 83 3 96 34 160 105 214 445 424 926 575 l120 38 61
-177 c34 -97 79 -221 102 -276z m3492 358 c382 -138 663 -330 757 -519 35 -71
38 -85 38 -159 0 -71 -4 -88 -34 -150 -62 -128 -222 -267 -442 -384 -170 -90
-590 -245 -609 -224 -4 4 -28 69 -53 143 -52 156 -125 342 -197 504 l-50 114
39 84 c71 153 219 543 257 675 3 14 97 -13 294 -84z m-3164 -1060 c62 -116
216 -381 271 -467 24 -37 42 -70 40 -72 -14 -14 -557 85 -557 101 0 33 183
525 195 525 2 0 25 -39 51 -87z m2488 -35 c68 -174 146 -407 138 -412 -25 -15
-540 -102 -549 -92 -2 2 47 89 109 193 62 103 142 243 178 310 36 68 67 123
70 123 3 0 27 -55 54 -122z m-2641 -683 c160 -31 443 -72 560 -81 l89 -7 102
-136 c119 -158 255 -325 350 -430 36 -40 66 -77 66 -81 0 -5 -38 -43 -85 -85
-524 -477 -980 -636 -1194 -414 -49 50 -102 157 -125 251 -48 196 -34 536 35
853 34 155 38 167 57 161 9 -3 75 -17 145 -31z m2876 -52 c84 -361 104 -728
52 -928 -61 -231 -170 -341 -348 -353 -254 -17 -631 187 -1001 540 l-62 60 78
86 c111 123 211 246 332 407 57 77 108 143 113 146 5 3 48 9 95 13 126 9 406
52 562 85 74 15 140 29 147 30 6 0 20 -35 32 -86z m-1169 -72 c0 -14 -348
-429 -361 -430 -9 -1 -224 250 -305 355 l-61 79 363 0 c200 0 364 -2 364 -4z"/>
<path d="M2906 3215 c-90 -23 -174 -73 -247 -146 -278 -279 -166 -749 211
-880 93 -32 239 -33 332 -1 224 77 368 274 368 506 0 231 -139 430 -355 507
-79 28 -227 34 -309 14z"/>
</g>
</svg>
